<?xml version="1.0" encoding="utf-8"?>
<!-- Generator: Adobe Illustrator 25.4.1, SVG Export Plug-In . SVG Version: 6.00 Build 0)  -->
<svg version="1.1" id="FAU" xmlns="http://www.w3.org/2000/svg" xmlns:xlink="http://www.w3.org/1999/xlink" x="0px" y="0px"
	 viewBox="0 0 1319.4 184.9" style="enable-background:new 0 0 1319.4 184.9;" xml:space="preserve">
<style type="text/css">
	.st0{fill:#0A215B;}
	.st1{fill:#779FB5;}
</style>
<path id="FAU_x5F_Logo_5_" class="st0" d="M0,19l9.3-9.3v168.3H0V19z M27.8,11.3H139V2H18.5v9.3v102h102.4V104H27.8V11.3z
	 M134.9,85.4H46.3V48.3H122l9.3-9.3h-85v-9.3H139v-9.3H46.3h-9.3v74.1h88.6L134.9,85.4z M18.5,127.1v51h9.3v-46.3h9.3v38.6l9.3-9.3
	v-29.3h74.6v-9.3H18.5V127.1z M469.8,2v106.6c0,24.8-11.1,46.1-36.9,62.5l-0.2-0.3c17-13.5,27.8-30.7,27.8-53.1V2h-9.3v115.5
	c0,33.3-27,58.2-60.2,58.2s-60.2-25-60.2-58.2V9.8l-9.3,9.3v98.7c0,38.4,31.1,67.2,69.5,67.2c0.9,0,9.3,0,9.3,0
	c37.8,0,78.8-27.9,78.8-76.2c0,0,0-106.7,0-106.7H469.8z M391,166.5c28.1,0,51-20.8,51-49h0V9.8l-9.3,9.3v89.5
	c0,17.9-14.5,30.1-32.4,30.1c-17.9,0-32.4-12.2-32.4-30.1l0-106.6h-9.3v106.6c0,23,18.7,39.4,41.7,39.4c9.4,0,20.9-4.7,28.6-12.8
	l0.2,0.3c-7.3,13.5-20.7,21.8-38.1,21.8c-22.9,0-41.5-16.6-41.7-39.4h0V2H340v115.9h0C340.2,145.8,363,166.5,391,166.5z
	 M185.1,122.5l-23.4,55.6l9.3,0l0,0h0l11.7-27.8h78.5l11.7,27.8h9.3L266.5,141h-80l3.9-9.3h81.4l19.5,46.3h9.3l-23.4-55.6H185.1z
	 M198.7,2l-68.1,161.6l5.9,8L208,2H198.7z M235.8,2l71.4,169.6l5.9-8L245,2H235.8z M179.7,113.2l-27.4,64.9H143L212.6,13l38.3,90.9
	h9.3L217.2,2h9.3l46.8,111.2H179.7z M221.9,57.1L202.1,104h39.5L221.9,57.1z M183.6,104h9.3l24.4-57.9l-4.6-11L183.6,104z"/>
<path id="FAU_3_" class="st0" d="M558.8,7.7h-15.8v8.7h11.8v5.7h-11.8v15h-6.2V2h22.1V7.7z M577.9,11.6l-1,6.1
	c-0.8-0.5-2-0.8-3.2-0.8c-4.2,0-5.2,3.3-5.2,7.2v13h-5.9V11.7h5.8v3.1h0.1c1.3-2.4,3.7-3.8,6.6-3.8C575.9,11.1,577,11.2,577.9,11.6z
	 M589.7,4c0,2-1.7,3.5-3.8,3.5c-2,0-3.7-1.5-3.7-3.5c0-2.1,1.7-3.6,3.7-3.6C588,0.4,589.7,2,589.7,4z M588.9,37.2h-5.9V11.7h5.9
	V37.2z M617.8,33.6c-2.9,2.8-6.2,4.2-10,4.2c-7.6,0-12.6-5.3-12.6-13.4c0-7.9,4.8-13.3,11.9-13.3c6.8,0,11.3,5.1,11.3,12.9
	c0,0.8,0,1.5-0.1,2.1h-17.2c0.6,4.2,3,6.5,6.7,6.5c2.3,0,4.1-0.9,6.2-3L617.8,33.6z M601.2,22.1h11.5c-0.2-3.9-2.2-6.1-5.5-6.1
	C603.7,16,601.7,18.2,601.2,22.1z M623.7,24.6c0-8.2,4.1-13.5,10.4-13.5c3.1,0,5.6,1.3,7.3,3.4h0.1v-13l6-1.5v37.2h-5.8v-3h-0.1
	c-1.8,2.2-4.5,3.6-7.7,3.6C627.9,37.8,623.7,32.8,623.7,24.6z M629.6,24.4c0,5.2,2.2,8,6,8c2.2,0,4.1-1,6-3.3v-9.3
	c-1.7-2.3-3.6-3.4-6-3.4C631.6,16.5,629.6,19.3,629.6,24.4z M670.8,11.6l-1,6.1c-0.8-0.5-2-0.8-3.2-0.8c-4.2,0-5.2,3.3-5.2,7.2v13
	h-5.9V11.7h5.8v3.1h0.1c1.3-2.4,3.7-3.8,6.6-3.8C668.8,11.1,669.8,11.2,670.8,11.6z M682.5,4c0,2-1.7,3.5-3.8,3.5
	c-2,0-3.7-1.5-3.7-3.5c0-2.1,1.7-3.6,3.7-3.6C680.8,0.4,682.5,2,682.5,4z M681.7,37.2h-5.9V11.7h5.9V37.2z M709.4,33.7
	c-2.5,2.8-5.4,4.1-9.1,4.1c-7.3,0-12.2-5.2-12.2-13.2c0-8,4.9-13.4,12.2-13.4c3.8,0,6.9,1.5,9.2,4.3l-4.1,3.9
	c-1.5-1.9-3.1-2.8-5-2.8c-3.7,0-6.3,3.3-6.3,8c0,4.7,2.5,7.8,6.2,7.8c2,0,3.6-0.8,5.2-2.8L709.4,33.7z M736.7,37.2h-6V22.6
	c0-3.8-1-6.2-4.6-6.2c-4.1,0-5.3,3.3-5.3,6.1v14.6h-6V1.5l6-1.5v14.8h0.1c1.5-2.3,4.1-3.7,7.4-3.7c5.9,0,8.4,4.4,8.4,10.3V37.2z
	 M756,24.4h-12.5v-5.7H756V24.4z M772.3,2h6.6l13,35.2h-6.8l-2.6-7.6h-14.1l-2.6,7.6h-6.6L772.3,2z M780.6,24l-5.1-14.9h-0.1
	L770.4,24H780.6z M803.2,37.2h-6V1.4l6-1.3V37.2z M832.4,33.6c-2.9,2.8-6.2,4.2-10,4.2c-7.6,0-12.6-5.3-12.6-13.4
	c0-7.9,4.8-13.3,11.9-13.3c6.8,0,11.3,5.1,11.3,12.9c0,0.8,0,1.5-0.1,2.1h-17.2c0.6,4.2,3,6.5,6.7,6.5c2.3,0,4.1-0.9,6.2-3
	L832.4,33.6z M815.7,22.1h11.5c-0.2-3.9-2.2-6.1-5.5-6.1C818.3,16,816.2,18.2,815.7,22.1z M860.6,37.2h-6.8l-5.4-8.8h-0.1l-5.3,8.8
	h-6.7L845,24l-8-12.2h6.7l4.8,7.8h0.1l4.7-7.8h6.6l-8,12.1L860.6,37.2z M874.7,21.3c1.6,0,3.1,0.2,5,0.6v-1c0-3.2-2-4.9-5.6-4.9
	c-2,0-4.4,0.5-6.4,1.5l-1.5-4.9c2.5-1,5.6-1.5,8.5-1.5c7.1,0,10.8,3.3,10.8,9.8v16.2h-5.6v-2.7h-0.1c-2.1,2.3-4.5,3.3-7.4,3.3
	c-5.1,0-8.4-3.1-8.4-8.1C863.9,24.3,867.7,21.3,874.7,21.3z M873.9,33.3c2.3,0,4.3-1,5.7-2.9v-4.5c-1.5-0.4-2.9-0.6-4.2-0.6
	c-3.7,0-5.9,1.5-5.9,4.2C869.6,31.9,871.3,33.3,873.9,33.3z M914.9,37.2h-6V22.6c0-3.7-1-6.2-4.6-6.2c-4.2,0-5.3,3.4-5.3,6.1v14.6
	H893V11.7h5.9v3h0.1c1.5-2.3,4.2-3.7,7.5-3.7c5.8,0,8.4,4.2,8.4,10.3V37.2z M921.3,24.6c0-8.2,4.1-13.5,10.4-13.5
	c3.1,0,5.6,1.3,7.3,3.4h0.1v-13l6-1.5v37.2h-5.8v-3h-0.1c-1.8,2.2-4.5,3.6-7.7,3.6C925.5,37.8,921.3,32.8,921.3,24.6z M927.1,24.4
	c0,5.2,2.2,8,6,8c2.2,0,4.1-1,6-3.3v-9.3c-1.7-2.3-3.6-3.4-6-3.4C929.2,16.5,927.1,19.3,927.1,24.4z M974.2,33.6
	c-2.9,2.8-6.2,4.2-10,4.2c-7.6,0-12.6-5.3-12.6-13.4c0-7.9,4.8-13.3,11.9-13.3c6.8,0,11.3,5.1,11.3,12.9c0,0.8,0,1.5-0.1,2.1h-17.2
	c0.6,4.2,3,6.5,6.7,6.5c2.3,0,4.1-0.9,6.2-3L974.2,33.6z M957.5,22.1H969c-0.2-3.9-2.2-6.1-5.5-6.1C960.1,16,958,18.2,957.5,22.1z
	 M996.7,11.6l-1,6.1c-0.8-0.5-2-0.8-3.2-0.8c-4.2,0-5.2,3.3-5.2,7.2v13h-5.9V11.7h5.8v3.1h0.1c1.3-2.4,3.7-3.8,6.6-3.8
	C994.7,11.1,995.8,11.2,996.7,11.6z M1013,24.4h-12.5v-5.7h12.5V24.4z M1048,23.2c0,8.5-4.3,14.5-13.8,14.5c-9.3,0-13.6-6-13.6-14.5
	V2h6.3v20.9c0,5.3,2.2,8.9,7.5,8.9c5.2,0,7.2-3.5,7.2-8.9V2h6.3V23.2z M1077.8,37.2h-6V22.6c0-3.7-1-6.2-4.6-6.2
	c-4.2,0-5.3,3.4-5.3,6.1v14.6h-5.9V11.7h5.9v3h0.1c1.5-2.3,4.2-3.7,7.5-3.7c5.8,0,8.4,4.2,8.4,10.3V37.2z M1092.1,4
	c0,2-1.7,3.5-3.8,3.5c-2,0-3.7-1.5-3.7-3.5c0-2.1,1.7-3.6,3.7-3.6C1090.4,0.4,1092.1,2,1092.1,4z M1091.3,37.2h-5.9V11.7h5.9V37.2z
	 M1121,11.7l-9.2,25.4h-6.2l-9.2-25.4h6.5l5.8,18.5h0l5.8-18.5H1121z M1146.6,33.6c-2.9,2.8-6.2,4.2-10,4.2
	c-7.6,0-12.6-5.3-12.6-13.4c0-7.9,4.8-13.3,11.9-13.3c6.8,0,11.3,5.1,11.3,12.9c0,0.8,0,1.5-0.1,2.1h-17.2c0.6,4.2,3,6.5,6.7,6.5
	c2.3,0,4.1-0.9,6.2-3L1146.6,33.6z M1129.9,22.1h11.5c-0.2-3.9-2.2-6.1-5.5-6.1C1132.5,16,1130.4,18.2,1129.9,22.1z M1169.1,11.6
	l-1,6.1c-0.8-0.5-2-0.8-3.2-0.8c-4.2,0-5.2,3.3-5.2,7.2v13h-5.9V11.7h5.8v3.1h0.1c1.3-2.4,3.7-3.8,6.6-3.8
	C1167.1,11.1,1168.2,11.2,1169.1,11.6z M1174.7,30c2.5,1.9,5,2.9,7.2,2.9c2.2,0,3.7-1,3.7-2.5c0-4.4-12.7-2.8-12.7-11.3
	c0-4.6,3.8-7.9,9.6-7.9c3,0,6.1,0.9,8.8,2.6l-2.8,4.7c-2.1-1.5-4.1-2.3-6-2.3c-2.2,0-3.6,1-3.6,2.3c0,4.1,12.7,2.7,12.7,11.2
	c0,4.8-4,8-9.8,8c-3.4,0-6.8-1-9.8-3.1L1174.7,30z M1204.6,4c0,2-1.7,3.5-3.8,3.5c-2,0-3.7-1.5-3.7-3.5c0-2.1,1.7-3.6,3.7-3.6
	C1202.9,0.4,1204.6,2,1204.6,4z M1203.8,37.2h-5.9V11.7h5.9V37.2z M1224.7,31.8v5c-1.3,0.6-3.2,1-5,1c-4.5,0-6.9-2.5-6.9-7.1V16.7
	h-3.8v-4.9h3.8v-7l5.9-1.3v8.2h6v4.9h-6v12.5c0,2.3,0.8,3.3,2.8,3.3C1222.6,32.6,1223.7,32.3,1224.7,31.8z M1240.2,21.3
	c1.6,0,3.1,0.2,5,0.6v-1c0-3.2-2-4.9-5.6-4.9c-2,0-4.4,0.5-6.4,1.5l-1.5-4.9c2.5-1,5.6-1.5,8.5-1.5c7.1,0,10.8,3.3,10.8,9.8v16.2
	h-5.6v-2.7h-0.1c-2.1,2.3-4.5,3.3-7.4,3.3c-5.1,0-8.4-3.1-8.4-8.1C1229.4,24.3,1233.2,21.3,1240.2,21.3z M1235.4,7.8
	c-1.9,0-3.4-1.5-3.4-3.4c0-1.9,1.5-3.4,3.4-3.4c2,0,3.6,1.5,3.6,3.4C1239,6.2,1237.4,7.8,1235.4,7.8z M1239.4,33.3
	c2.3,0,4.3-1,5.7-2.9v-4.5c-1.5-0.4-2.9-0.6-4.2-0.6c-3.7,0-5.9,1.5-5.9,4.2C1235.1,31.9,1236.8,33.3,1239.4,33.3z M1245.8,7.8
	c-1.9,0-3.4-1.5-3.4-3.4c0-1.9,1.6-3.4,3.4-3.4c1.9,0,3.5,1.5,3.5,3.4C1249.4,6.2,1247.8,7.8,1245.8,7.8z M1271.5,31.8v5
	c-1.3,0.6-3.2,1-5,1c-4.5,0-6.9-2.5-6.9-7.1V16.7h-3.8v-4.9h3.8v-7l5.9-1.3v8.2h6v4.9h-6v12.5c0,2.3,0.8,3.3,2.8,3.3
	C1269.3,32.6,1270.5,32.3,1271.5,31.8z"/>
<g>
	<g>
		<path class="st1" d="M565.3,79.4c0,12.5-8,17.8-17.8,17.8h-10.9V62h11.1C557.3,62,565.3,66.9,565.3,79.4z M558.9,79.7
			c0-7.5-3.9-11.9-11.4-11.9h-4.6v23.5h4.5C554.9,91.3,558.9,87.2,558.9,79.7z"/>
		<path class="st1" d="M593.4,93.6c-2.9,2.8-6.2,4.2-10,4.2c-7.6,0-12.6-5.4-12.6-13.4c0-7.9,4.9-13.3,11.9-13.3
			c6.9,0,11.4,5.1,11.4,12.9c0,0.8,0,1.7-0.1,2.4h-17.2c0.7,4,3.1,6.3,6.7,6.3c2.3,0,4.2-1,6.3-3L593.4,93.6z M576.8,82.1h11.5
			c-0.2-3.9-2.2-6.2-5.6-6.2S577.2,78.2,576.8,82.1z"/>
		<path class="st1" d="M624.3,84.3c0,8.2-4.2,13.5-10.3,13.5c-3.1,0-5.7-1.3-7.4-3.4h-0.1v11.5l-6,1.6V71.7h5.8v3h0.1
			c1.9-2.2,4.5-3.7,7.7-3.7C620.2,71.1,624.3,76,624.3,84.3z M618.5,84.4c0-5.2-2.1-8-6-8c-2.3,0-4.1,1-6,3.3V89
			c1.8,2.3,3.7,3.5,6.1,3.5C616.5,92.4,618.5,89.5,618.5,84.4z"/>
		<path class="st1" d="M640.2,81.4c1.6,0,3.1,0.1,4.8,0.5V81c0-3.2-1.9-5-5.6-5c-2,0-4.4,0.6-6.5,1.5l-1.3-5
			c2.4-0.9,5.5-1.5,8.4-1.5c7.2,0,10.9,3.3,10.9,9.8v16.3h-5.7v-2.7h-0.1c-2.2,2.2-4.5,3.3-7.5,3.3c-5.2,0-8.4-3.1-8.4-8.1
			C629.3,84.3,633.1,81.4,640.2,81.4z M639.2,93.3c2.1,0,4.1-1,5.8-3v-4.4c-1.4-0.3-2.9-0.5-4.2-0.5c-3.8,0-5.9,1.5-5.9,4.2
			C635,91.8,636.6,93.3,639.2,93.3z"/>
		<path class="st1" d="M673.9,71.6l-1,6.2c-0.9-0.5-2-0.8-3.3-0.8c-4.2,0-5.3,3.3-5.3,7.2v13.1h-6V71.7h5.9v3.2h0.1
			c1.4-2.4,3.8-3.8,6.7-3.8C671.9,71.1,673,71.2,673.9,71.6z"/>
		<path class="st1" d="M693.4,91.7v5c-1.2,0.7-3.3,1-5,1c-4.5,0-7-2.5-7-7.2v-14h-3.9v-5h3.9v-7l5.9-1.3v8.3h6.1v5h-6.1v12.6
			c0,2.3,0.8,3.3,2.8,3.3C691.3,92.5,692.4,92.2,693.4,91.7z"/>
		<path class="st1" d="M699.4,71.7h5.9v3.1h0.1c1.6-2.4,4.2-3.7,7.2-3.7c3.3,0,5.6,1.6,6.7,4.3c2-2.9,4.5-4.3,7.9-4.3
			c5.8,0,8.5,4,8.5,10.3v15.9h-6V82.5c0-3.5-1-6-4.3-6c-3.9,0-4.9,3.3-4.9,6v14.8h-6V82.5c0-3.5-1-6-4.3-6c-3.9,0-4.9,3.3-4.9,6
			v14.8h-6V71.7z"/>
		<path class="st1" d="M764.6,93.6c-2.9,2.8-6.2,4.2-10,4.2c-7.6,0-12.6-5.4-12.6-13.4c0-7.9,4.9-13.3,11.9-13.3
			c6.9,0,11.4,5.1,11.4,12.9c0,0.8,0,1.7-0.1,2.4H748c0.7,4,3.1,6.3,6.7,6.3c2.3,0,4.2-1,6.3-3L764.6,93.6z M748,82.1h11.5
			c-0.2-3.9-2.2-6.2-5.6-6.2S748.4,78.2,748,82.1z"/>
		<path class="st1" d="M793.7,97.2h-6V82.6c0-3.7-1.1-6.2-4.7-6.2c-4.2,0-5.3,3.4-5.3,6.2v14.6h-6V71.7h5.9v3.1h0.1
			c1.5-2.3,4.2-3.7,7.5-3.7c5.8,0,8.4,4.2,8.4,10.3V97.2z"/>
		<path class="st1" d="M814.2,91.7v5c-1.2,0.7-3.3,1-5,1c-4.6,0-7-2.5-7-7.2v-14h-3.9v-5h3.9v-7l5.9-1.3v8.3h6.1v5h-6.1v12.6
			c0,2.3,0.8,3.3,2.8,3.3C812.1,92.5,813.2,92.2,814.2,91.7z"/>
		<path class="st1" d="M845.4,62h6.6l13.1,35.2h-6.9l-2.6-7.5h-14.2l-2.6,7.5h-6.7L845.4,62z M853.8,84.1l-5.1-14.9h-0.1l-5.1,14.9
			H853.8z"/>
		<path class="st1" d="M885.8,71.6l-1,6.2c-0.9-0.5-2-0.8-3.3-0.8c-4.2,0-5.3,3.3-5.3,7.2v13.1h-6V71.7h5.9v3.2h0.1
			c1.4-2.4,3.8-3.8,6.7-3.8C883.8,71.1,884.9,71.2,885.8,71.6z"/>
		<path class="st1" d="M905.3,91.7v5c-1.2,0.7-3.3,1-5,1c-4.6,0-7-2.5-7-7.2v-14h-3.9v-5h3.9v-7l5.9-1.3v8.3h6.1v5h-6.1v12.6
			c0,2.3,0.8,3.3,2.8,3.3C903.2,92.5,904.3,92.2,905.3,91.7z"/>
		<path class="st1" d="M917.7,64c0,2.1-1.7,3.6-3.8,3.6c-2.1,0-3.8-1.5-3.8-3.6c0-2,1.7-3.6,3.8-3.6C916,60.4,917.7,62,917.7,64z
			 M916.9,97.2h-6V71.7h6V97.2z"/>
		<path class="st1" d="M938,65.2c-0.8-0.3-1.8-0.5-2.6-0.5c-2.2,0-3.1,1.2-3.1,3.6v3.5h5.1v5h-5v20.5h-6V76.7h-3.9v-5h3.9v-3.7
			c0-5.3,2.4-8.5,8.1-8.5c1.3,0,2.5,0.2,3.5,0.6V65.2z M949,64c0,2.1-1.7,3.6-3.8,3.6c-2,0-3.8-1.5-3.8-3.6c0-2,1.7-3.6,3.8-3.6
			C947.3,60.4,949,62,949,64z M948.2,97.2h-6V71.7h6V97.2z"/>
		<path class="st1" d="M976.1,93.7c-2.6,2.8-5.5,4.1-9.2,4.1c-7.3,0-12.2-5.2-12.2-13.2c0-8,5-13.4,12.3-13.4c3.9,0,7,1.5,9.2,4.3
			l-4.1,4c-1.5-2-3.1-2.9-5.1-2.9c-3.8,0-6.4,3.2-6.4,7.9c0,4.8,2.6,8,6.3,8c2,0,3.6-0.9,5.3-2.8L976.1,93.7z"/>
		<path class="st1" d="M988.2,64c0,2.1-1.7,3.6-3.8,3.6c-2.1,0-3.8-1.5-3.8-3.6c0-2,1.7-3.6,3.8-3.6C986.5,60.4,988.2,62,988.2,64z
			 M987.4,97.2h-6V71.7h6V97.2z"/>
		<path class="st1" d="M1004.4,81.4c1.6,0,3.1,0.1,4.8,0.5V81c0-3.2-1.9-5-5.6-5c-2,0-4.4,0.6-6.5,1.5l-1.3-5
			c2.4-0.9,5.5-1.5,8.4-1.5c7.2,0,10.9,3.3,10.9,9.8v16.3h-5.7v-2.7h-0.1c-2.2,2.2-4.5,3.3-7.5,3.3c-5.2,0-8.4-3.1-8.4-8.1
			C993.5,84.3,997.3,81.4,1004.4,81.4z M1003.4,93.3c2.1,0,4.1-1,5.8-3v-4.4c-1.4-0.3-2.9-0.5-4.2-0.5c-3.8,0-5.9,1.5-5.9,4.2
			C999.2,91.8,1000.8,93.3,1003.4,93.3z"/>
		<path class="st1" d="M1028.7,97.2h-6V61.4l6-1.4V97.2z"/>
		<path class="st1" d="M1058.3,97.2h-6.4V62h6.4V97.2z"/>
		<path class="st1" d="M1088.5,97.2h-6V82.6c0-3.7-1.1-6.2-4.7-6.2c-4.2,0-5.3,3.4-5.3,6.2v14.6h-6V71.7h5.9v3.1h0.1
			c1.5-2.3,4.2-3.7,7.5-3.7c5.8,0,8.4,4.2,8.4,10.3V97.2z"/>
		<path class="st1" d="M1109,91.7v5c-1.2,0.7-3.3,1-5,1c-4.5,0-7-2.5-7-7.2v-14h-3.9v-5h3.9v-7l5.9-1.3v8.3h6.1v5h-6.1v12.6
			c0,2.3,0.8,3.3,2.8,3.3C1106.9,92.5,1108,92.2,1109,91.7z"/>
		<path class="st1" d="M1135.7,93.6c-2.9,2.8-6.2,4.2-10,4.2c-7.6,0-12.6-5.4-12.6-13.4c0-7.9,4.9-13.3,11.9-13.3
			c6.9,0,11.4,5.1,11.4,12.9c0,0.8,0,1.7-0.1,2.4h-17.2c0.7,4,3.1,6.3,6.7,6.3c2.3,0,4.2-1,6.3-3L1135.7,93.6z M1119.1,82.1h11.5
			c-0.2-3.9-2.2-6.2-5.6-6.2S1119.5,78.2,1119.1,82.1z"/>
		<path class="st1" d="M1148.9,97.2h-6V61.4l6-1.4V97.2z"/>
		<path class="st1" d="M1162.7,97.2h-6V61.4l6-1.4V97.2z"/>
		<path class="st1" d="M1177.4,64c0,2.1-1.7,3.6-3.8,3.6c-2.1,0-3.8-1.5-3.8-3.6c0-2,1.7-3.6,3.8-3.6
			C1175.7,60.4,1177.4,62,1177.4,64z M1176.6,97.2h-6V71.7h6V97.2z"/>
		<path class="st1" d="M1189.7,102.7l1.3-0.1c7.6-0.3,9.9-2.5,9.9-7.2v-1.7h0c-1.8,2.3-4.7,3.6-7.7,3.6c-6.2,0-10.1-5.1-10.1-12.9
			c0-8,4.2-13.4,10.4-13.4c3.1,0,5.8,1.2,7.6,3.5h0v-3h5.9v22.9c0,8.2-4.2,12.4-15.3,12.8l-1.2,0.1L1189.7,102.7z M1188.9,84.3
			c0,5,2.2,8,6,8c2.3,0,4.2-1.1,6-3.4v-9.1c-1.8-2.2-3.8-3.3-6.1-3.3C1191.1,76.4,1188.9,79.3,1188.9,84.3z"/>
		<path class="st1" d="M1235.9,93.6c-2.9,2.8-6.2,4.2-10,4.2c-7.6,0-12.6-5.4-12.6-13.4c0-7.9,4.9-13.3,11.9-13.3
			c6.9,0,11.4,5.1,11.4,12.9c0,0.8,0,1.7-0.1,2.4h-17.2c0.7,4,3.1,6.3,6.7,6.3c2.3,0,4.2-1,6.3-3L1235.9,93.6z M1219.3,82.1h11.5
			c-0.2-3.9-2.2-6.2-5.6-6.2S1219.7,78.2,1219.3,82.1z"/>
		<path class="st1" d="M1265,97.2h-6V82.6c0-3.7-1.1-6.2-4.7-6.2c-4.2,0-5.3,3.4-5.3,6.2v14.6h-6V71.7h5.9v3.1h0.1
			c1.5-2.3,4.2-3.7,7.5-3.7c5.8,0,8.4,4.2,8.4,10.3V97.2z"/>
		<path class="st1" d="M1292.6,93.7c-2.6,2.8-5.5,4.1-9.2,4.1c-7.3,0-12.2-5.2-12.2-13.2c0-8,5-13.4,12.3-13.4c3.9,0,7,1.5,9.2,4.3
			l-4.1,4c-1.5-2-3.1-2.9-5.1-2.9c-3.8,0-6.4,3.2-6.4,7.9c0,4.8,2.6,8,6.3,8c2,0,3.6-0.9,5.3-2.8L1292.6,93.7z"/>
		<path class="st1" d="M1318.7,93.6c-2.9,2.8-6.2,4.2-10,4.2c-7.6,0-12.6-5.4-12.6-13.4c0-7.9,4.9-13.3,11.9-13.3
			c6.9,0,11.4,5.1,11.4,12.9c0,0.8,0,1.7-0.1,2.4h-17.2c0.7,4,3.1,6.3,6.7,6.3c2.3,0,4.2-1,6.3-3L1318.7,93.6z M1302.1,82.1h11.5
			c-0.2-3.9-2.2-6.2-5.6-6.2S1302.5,78.2,1302.1,82.1z"/>
		<path class="st1" d="M543.2,124c0,2.1-1.7,3.6-3.8,3.6c-2.1,0-3.8-1.5-3.8-3.6c0-2,1.7-3.6,3.8-3.6
			C541.5,120.4,543.2,122,543.2,124z M542.4,157.2h-6v-25.5h6V157.2z"/>
		<path class="st1" d="M572.1,157.2h-6v-14.6c0-3.7-1.1-6.2-4.7-6.2c-4.2,0-5.3,3.4-5.3,6.2v14.6h-6v-25.5h5.9v3.1h0.1
			c1.5-2.3,4.2-3.7,7.5-3.7c5.8,0,8.4,4.2,8.4,10.3V157.2z"/>
		<path class="st1" d="M620.3,146.8c0,6.2-4.6,10.4-12.3,10.4h-13.2V122h13c7.1,0,11.1,3,11.1,8.7c0,3.8-1.9,6.5-5.3,7.7v0.1
			C617.8,139.4,620.3,142.2,620.3,146.8z M612.7,131.7c0-2.8-1.9-4.3-5.6-4.3H601v8.9h6.5C610.8,136.3,612.7,134.6,612.7,131.7z
			 M614,146.4c0-3.4-2.3-5.1-6.8-5.1H601v10.5h6.6C611.6,151.7,614,149.8,614,146.4z"/>
		<path class="st1" d="M633.8,124c0,2.1-1.7,3.6-3.8,3.6c-2.1,0-3.8-1.5-3.8-3.6c0-2,1.7-3.6,3.8-3.6
			C632.1,120.4,633.8,122,633.8,124z M633,157.2h-6v-25.5h6V157.2z"/>
		<path class="st1" d="M639.4,144.4c0-8,5-13.4,12.4-13.4c7.4,0,12.2,5.3,12.2,13.4c0,8-4.9,13.4-12.2,13.4
			C644.3,157.8,639.4,152.4,639.4,144.4z M658,144.4c0-4.9-2.5-8-6.4-8c-3.9,0-6.4,3-6.4,7.9c0,4.9,2.5,8,6.4,8S658,149.3,658,144.4
			z"/>
		<path class="st1" d="M670.4,131.7h5.9v3.1h0.1c1.6-2.4,4.2-3.7,7.2-3.7c3.3,0,5.6,1.6,6.7,4.3c2-2.9,4.5-4.3,7.9-4.3
			c5.8,0,8.5,4,8.5,10.3v15.9h-6v-14.7c0-3.5-1-6-4.3-6c-3.9,0-4.9,3.3-4.9,6v14.8h-6v-14.7c0-3.5-1-6-4.3-6c-3.9,0-4.9,3.3-4.9,6
			v14.8h-6V131.7z"/>
		<path class="st1" d="M735.6,153.6c-2.9,2.8-6.2,4.2-10,4.2c-7.6,0-12.6-5.4-12.6-13.4c0-7.9,4.9-13.3,11.9-13.3
			c6.9,0,11.4,5.1,11.4,12.9c0,0.8,0,1.7-0.1,2.4H719c0.7,4,3.1,6.3,6.7,6.3c2.3,0,4.2-1,6.3-3L735.6,153.6z M719,142.1h11.5
			c-0.2-3.9-2.2-6.2-5.6-6.2S719.4,138.2,719,142.1z"/>
		<path class="st1" d="M741.5,144.5c0-8.2,4.1-13.5,10.4-13.5c3.2,0,5.7,1.3,7.4,3.5h0.1v-13.1l6-1.5v37.3h-5.8v-3h-0.1
			c-1.9,2.2-4.5,3.6-7.7,3.6C745.7,157.8,741.5,152.7,741.5,144.5z M747.4,144.4c0,5.2,2.1,8.1,5.9,8.1c2.3,0,4.2-1.1,6.1-3.4v-9.2
			c-1.7-2.3-3.7-3.4-6.1-3.4C749.4,136.5,747.4,139.3,747.4,144.4z"/>
		<path class="st1" d="M779.9,124c0,2.1-1.7,3.6-3.8,3.6c-2.1,0-3.8-1.5-3.8-3.6c0-2,1.7-3.6,3.8-3.6
			C778.2,120.4,779.9,122,779.9,124z M779.1,157.2h-6v-25.5h6V157.2z"/>
		<path class="st1" d="M806.9,153.7c-2.6,2.8-5.5,4.1-9.2,4.1c-7.3,0-12.2-5.2-12.2-13.2c0-8,5-13.4,12.3-13.4c3.9,0,7,1.5,9.2,4.3
			l-4.1,4c-1.5-2-3.1-2.9-5.1-2.9c-3.8,0-6.4,3.2-6.4,7.9c0,4.8,2.6,8,6.3,8c2,0,3.6-0.9,5.3-2.8L806.9,153.7z"/>
		<path class="st1" d="M822.1,141.4c1.6,0,3.1,0.1,4.8,0.5V141c0-3.2-1.9-5-5.6-5c-2,0-4.4,0.6-6.5,1.5l-1.3-5
			c2.4-0.9,5.5-1.5,8.4-1.5c7.2,0,10.9,3.3,10.9,9.8v16.3h-5.7v-2.7H827c-2.2,2.2-4.5,3.3-7.5,3.3c-5.2,0-8.4-3.1-8.4-8.1
			C811.2,144.3,815,141.4,822.1,141.4z M821.1,153.3c2.1,0,4.1-1,5.8-3v-4.4c-1.4-0.3-2.9-0.5-4.2-0.5c-3.8,0-5.9,1.5-5.9,4.2
			C816.9,151.8,818.5,153.3,821.1,153.3z"/>
		<path class="st1" d="M846.4,157.2h-6v-35.8l6-1.4V157.2z"/>
		<path class="st1" d="M892.5,157.2h-23V122h22.4v5.7h-16.2v8.4h12.4v5.7h-12.4v9.8h16.8V157.2z"/>
		<path class="st1" d="M920.6,157.2h-6v-14.6c0-3.7-1.1-6.2-4.7-6.2c-4.2,0-5.3,3.4-5.3,6.2v14.6h-6v-25.5h5.9v3.1h0.1
			c1.5-2.3,4.2-3.7,7.5-3.7c5.8,0,8.4,4.2,8.4,10.3V157.2z"/>
		<path class="st1" d="M933.7,162.7l1.3-0.1c7.6-0.3,9.9-2.5,9.9-7.2v-1.7h0c-1.8,2.3-4.7,3.6-7.7,3.6c-6.2,0-10.1-5.1-10.1-12.9
			c0-8,4.2-13.4,10.4-13.4c3.1,0,5.8,1.2,7.6,3.5h0v-3h5.9v22.9c0,8.2-4.2,12.4-15.3,12.8l-1.2,0.1L933.7,162.7z M932.9,144.3
			c0,5,2.2,8,6,8c2.3,0,4.2-1.1,6-3.4v-9.1c-1.8-2.2-3.8-3.3-6.1-3.3C935.1,136.4,932.9,139.3,932.9,144.3z"/>
		<path class="st1" d="M965.4,124c0,2.1-1.7,3.6-3.8,3.6c-2.1,0-3.8-1.5-3.8-3.6c0-2,1.7-3.6,3.8-3.6
			C963.7,120.4,965.4,122,965.4,124z M964.6,157.2h-6v-25.5h6V157.2z"/>
		<path class="st1" d="M994.3,157.2h-6v-14.6c0-3.7-1.1-6.2-4.7-6.2c-4.2,0-5.3,3.4-5.3,6.2v14.6h-6v-25.5h5.9v3.1h0.1
			c1.5-2.3,4.2-3.7,7.5-3.7c5.8,0,8.4,4.2,8.4,10.3V157.2z"/>
		<path class="st1" d="M1023.3,153.6c-2.9,2.8-6.2,4.2-10,4.2c-7.6,0-12.6-5.4-12.6-13.4c0-7.9,4.9-13.3,11.9-13.3
			c6.9,0,11.4,5.1,11.4,12.9c0,0.8,0,1.7-0.1,2.4h-17.2c0.7,4,3.1,6.3,6.7,6.3c2.3,0,4.2-1,6.3-3L1023.3,153.6z M1006.6,142.1h11.5
			c-0.2-3.9-2.2-6.2-5.6-6.2S1007.1,138.2,1006.6,142.1z"/>
		<path class="st1" d="M1051.6,153.6c-2.9,2.8-6.2,4.2-10,4.2c-7.6,0-12.6-5.4-12.6-13.4c0-7.9,4.9-13.3,11.9-13.3
			c6.9,0,11.4,5.1,11.4,12.9c0,0.8,0,1.7-0.1,2.4H1035c0.7,4,3.1,6.3,6.7,6.3c2.3,0,4.2-1,6.3-3L1051.6,153.6z M1035,142.1h11.5
			c-0.2-3.9-2.2-6.2-5.6-6.2S1035.4,138.2,1035,142.1z"/>
		<path class="st1" d="M1074.3,131.6l-1,6.2c-0.9-0.5-2-0.8-3.3-0.8c-4.2,0-5.3,3.3-5.3,7.2v13.1h-6v-25.5h5.9v3.2h0.1
			c1.4-2.4,3.8-3.8,6.7-3.8C1072.3,131.1,1073.3,131.2,1074.3,131.6z"/>
		<path class="st1" d="M1086.1,124c0,2.1-1.7,3.6-3.8,3.6c-2.1,0-3.8-1.5-3.8-3.6c0-2,1.7-3.6,3.8-3.6
			C1084.4,120.4,1086.1,122,1086.1,124z M1085.3,157.2h-6v-25.5h6V157.2z"/>
		<path class="st1" d="M1115,157.2h-6v-14.6c0-3.7-1.1-6.2-4.7-6.2c-4.2,0-5.3,3.4-5.3,6.2v14.6h-6v-25.5h5.9v3.1h0.1
			c1.5-2.3,4.2-3.7,7.5-3.7c5.8,0,8.4,4.2,8.4,10.3V157.2z"/>
		<path class="st1" d="M1128.1,162.7l1.3-0.1c7.6-0.3,9.9-2.5,9.9-7.2v-1.7h0c-1.8,2.3-4.7,3.6-7.7,3.6c-6.2,0-10.1-5.1-10.1-12.9
			c0-8,4.2-13.4,10.4-13.4c3.1,0,5.8,1.2,7.6,3.5h0v-3h5.9v22.9c0,8.2-4.2,12.4-15.3,12.8l-1.2,0.1L1128.1,162.7z M1127.3,144.3
			c0,5,2.2,8,6,8c2.3,0,4.2-1.1,6-3.4v-9.1c-1.8-2.2-3.8-3.3-6.1-3.3C1129.5,136.4,1127.3,139.3,1127.3,144.3z"/>
		<path class="st1" d="M1172.2,167.5h-3.4v-49.1h3.4V167.5z"/>
		<path class="st1" d="M1206.5,122h6.6l13.1,35.2h-6.9l-2.6-7.5h-14.2l-2.6,7.5h-6.7L1206.5,122z M1214.8,144.1l-5.1-14.9h-0.1
			l-5.1,14.9H1214.8z"/>
		<path class="st1" d="M1238.1,157.2h-6.4V122h6.4V157.2z"/>
		<path class="st1" d="M1272.3,146.8c0,6.2-4.6,10.4-12.3,10.4h-13.2V122h13c7.1,0,11.1,3,11.1,8.7c0,3.8-1.9,6.5-5.3,7.7v0.1
			C1269.9,139.4,1272.3,142.2,1272.3,146.8z M1264.8,131.7c0-2.8-1.9-4.3-5.6-4.3h-6.2v8.9h6.5
			C1262.8,136.3,1264.8,134.6,1264.8,131.7z M1266,146.4c0-3.4-2.3-5.1-6.8-5.1h-6.2v10.5h6.6C1263.7,151.7,1266,149.8,1266,146.4z"
			/>
		<path class="st1" d="M1302.6,157.2h-23V122h22.4v5.7h-16.2v8.4h12.4v5.7h-12.4v9.8h16.8V157.2z"/>
	</g>
</g>
</svg>
